<?xml version="1.0" encoding="UTF-8"?><svg id="Layer_2" xmlns="http://www.w3.org/2000/svg" xmlns:xlink="http://www.w3.org/1999/xlink" viewBox="0 0 258.1 213.86"><defs><filter id="drop-shadow-1" filterUnits="userSpaceOnUse"><feOffset dx="4" dy="4"/><feGaussianBlur result="blur" stdDeviation="3"/><feFlood flood-color="#1a1c31" flood-opacity=".3"/><feComposite in2="blur" operator="in"/><feComposite in="SourceGraphic"/></filter></defs><g id="Layer_3"><g style="filter:url(#drop-shadow-1);"><polygon points="257.6 213.36 .5 213.36 .5 213.36 .5 .5 257.6 .5 257.6 213.36 257.6 213.36" style="fill:#fff;"/><polyline points=".5 36 .5 .5 257.6 .5 257.6 36" style="fill:#c6c6c6;"/><polygon points="257.6 213.36 .5 213.36 .5 213.36 .5 .5 257.6 .5 257.6 213.36 257.6 213.36" style="fill:none; stroke:#c6c6c6; stroke-miterlimit:10;"/><g><line x1="237.47" y1="14.08" x2="245.81" y2="22.42" style="fill:none; stroke:#333; stroke-miterlimit:10;"/><line x1="245.81" y1="14.08" x2="237.47" y2="22.42" style="fill:none; stroke:#333; stroke-miterlimit:10;"/></g><rect x="215.81" y="14.08" width="8.34" height="8.34" style="fill:none; stroke:#333; stroke-miterlimit:10;"/><line x1="201.59" y1="18.25" x2="193.25" y2="18.25" style="fill:none; stroke:#333; stroke-miterlimit:10;"/><rect x=".5" y="36" width="257.1" height="1" style="fill:#aaa;"/><g><rect x="43.89" y="75.11" width="170.32" height="43.28" rx="13.24" ry="13.24" style="fill:#21264c;"/><g><path d="M80.27,96.92c0,1.05-.19,2.02-.57,2.91s-.91,1.66-1.59,2.31c-.68,.65-1.51,1.16-2.47,1.52-.96,.36-2.03,.54-3.21,.54h-5.87v-14.54h5.87c1.17,0,2.25,.18,3.21,.55,.96,.37,1.79,.87,2.47,1.52,.68,.65,1.21,1.41,1.59,2.3s.57,1.86,.57,2.9Zm-3.59,0c0-.72-.1-1.37-.29-1.95s-.47-1.07-.83-1.47c-.36-.4-.81-.71-1.33-.93-.53-.22-1.12-.32-1.79-.32h-2.34v9.35h2.34c.67,0,1.27-.11,1.79-.32,.53-.22,.97-.53,1.33-.93,.36-.4,.64-.89,.83-1.47s.29-1.23,.29-1.96Z" style="fill:#fff;"/><path d="M97.17,96.92c0,1.05-.19,2.03-.57,2.94-.38,.9-.91,1.69-1.59,2.36s-1.51,1.19-2.47,1.57c-.96,.38-2.03,.57-3.21,.57s-2.25-.19-3.21-.57c-.97-.38-1.8-.9-2.48-1.57s-1.22-1.46-1.6-2.36c-.38-.91-.57-1.88-.57-2.94s.19-2.03,.57-2.93,.91-1.69,1.6-2.36c.69-.67,1.52-1.19,2.48-1.57s2.04-.57,3.21-.57,2.24,.19,3.21,.57c.96,.38,1.79,.91,2.47,1.57,.68,.67,1.21,1.45,1.59,2.36,.38,.91,.57,1.88,.57,2.92Zm-3.59,0c0-.72-.1-1.37-.29-1.94-.19-.58-.47-1.06-.83-1.46s-.81-.71-1.33-.92c-.53-.21-1.12-.32-1.79-.32s-1.28,.11-1.81,.32c-.53,.21-.97,.52-1.34,.92s-.64,.89-.83,1.46c-.19,.58-.29,1.22-.29,1.94s.1,1.38,.29,1.95c.19,.58,.47,1.06,.83,1.46s.81,.7,1.34,.91c.53,.21,1.13,.31,1.81,.31s1.27-.1,1.79-.31c.52-.21,.97-.51,1.33-.91s.64-.89,.83-1.46c.19-.58,.29-1.23,.29-1.95Z" style="fill:#fff;"/><path d="M119.42,89.65l-4.67,14.54h-3.17l-2.84-9.01c-.05-.14-.11-.29-.16-.46-.05-.17-.1-.35-.15-.53-.05,.19-.1,.36-.14,.53-.05,.17-.1,.33-.16,.46l-2.88,9.01h-3.17l-4.67-14.54h2.95c.3,0,.56,.07,.76,.2,.2,.13,.34,.31,.4,.53l2.07,7.59c.06,.24,.12,.5,.19,.78s.12,.58,.19,.88c.12-.63,.28-1.18,.46-1.67l2.45-7.59c.06-.19,.2-.35,.4-.5s.45-.22,.74-.22h1.04c.3,0,.55,.07,.74,.2,.19,.14,.33,.31,.42,.52l2.43,7.59c.18,.47,.33,.99,.46,1.59,.05-.3,.11-.58,.17-.84s.12-.51,.18-.74l2.07-7.59c.06-.19,.19-.36,.39-.51s.46-.22,.75-.22h2.76Z" style="fill:#fff;"/><path d="M134.12,89.65v14.54h-1.83c-.27,0-.5-.04-.68-.12-.18-.08-.37-.23-.54-.43l-7.12-8.67c.03,.26,.05,.51,.06,.75,.01,.24,.02,.47,.02,.68v7.8h-3.09v-14.54h1.85c.15,0,.28,0,.38,.02,.1,.01,.2,.04,.28,.08,.08,.04,.16,.09,.24,.15,.08,.07,.16,.16,.26,.27l7.19,8.73c-.04-.28-.06-.55-.07-.81-.01-.26-.02-.51-.02-.74v-7.7h3.09Z" style="fill:#fff;"/><path d="M146.15,101.5v2.7h-9.1v-14.54h3.5v11.85h5.6Z" style="fill:#fff;"/><path d="M162.38,96.92c0,1.05-.19,2.03-.57,2.94-.38,.9-.91,1.69-1.59,2.36s-1.51,1.19-2.47,1.57c-.96,.38-2.03,.57-3.21,.57s-2.25-.19-3.21-.57c-.97-.38-1.8-.9-2.48-1.57s-1.22-1.46-1.6-2.36c-.38-.91-.57-1.88-.57-2.94s.19-2.03,.57-2.93,.91-1.69,1.6-2.36c.69-.67,1.52-1.19,2.48-1.57s2.04-.57,3.21-.57,2.24,.19,3.21,.57c.96,.38,1.79,.91,2.47,1.57,.68,.67,1.21,1.45,1.59,2.36,.38,.91,.57,1.88,.57,2.92Zm-3.59,0c0-.72-.1-1.37-.29-1.94-.19-.58-.47-1.06-.83-1.46s-.81-.71-1.33-.92c-.53-.21-1.12-.32-1.79-.32s-1.28,.11-1.81,.32c-.53,.21-.97,.52-1.34,.92s-.64,.89-.83,1.46c-.19,.58-.29,1.22-.29,1.94s.1,1.38,.29,1.95c.19,.58,.47,1.06,.83,1.46s.81,.7,1.34,.91c.53,.21,1.13,.31,1.81,.31s1.27-.1,1.79-.31c.52-.21,.97-.51,1.33-.91s.64-.89,.83-1.46c.19-.58,.29-1.23,.29-1.95Z" style="fill:#fff;"/><path d="M177.49,104.19h-2.72c-.3,0-.55-.07-.74-.21-.19-.14-.33-.31-.42-.52l-.89-2.54h-5.75l-.89,2.54c-.08,.19-.21,.35-.41,.5-.2,.15-.44,.22-.73,.22h-2.74l5.85-14.54h3.59l5.85,14.54Zm-5.57-5.56l-1.4-3.98c-.1-.25-.21-.55-.33-.89-.12-.34-.24-.71-.35-1.11-.1,.41-.21,.78-.33,1.13-.12,.35-.23,.65-.33,.9l-1.39,3.96h4.14Z" style="fill:#fff;"/><path d="M192.39,96.92c0,1.05-.19,2.02-.57,2.91s-.91,1.66-1.59,2.31c-.68,.65-1.51,1.16-2.47,1.52-.96,.36-2.03,.54-3.21,.54h-5.87v-14.54h5.87c1.17,0,2.25,.18,3.21,.55,.96,.37,1.79,.87,2.47,1.52,.68,.65,1.21,1.41,1.59,2.3s.57,1.86,.57,2.9Zm-3.59,0c0-.72-.1-1.37-.29-1.95s-.47-1.07-.83-1.47c-.36-.4-.81-.71-1.33-.93-.53-.22-1.12-.32-1.79-.32h-2.34v9.35h2.34c.67,0,1.27-.11,1.79-.32,.53-.22,.97-.53,1.33-.93,.36-.4,.64-.89,.83-1.47s.29-1.23,.29-1.96Z" style="fill:#fff;"/></g><path d="M192.57,175.25H65.53c-11.95,0-21.64-9.69-21.64-21.64h0c0-11.95,9.69-21.64,21.64-21.64h127.04c11.95,0,21.64,9.69,21.64,21.64h0c0,11.95-9.69,21.64-21.64,21.64Z" style="fill:#64ab70;"/><g><path d="M79.78,153.78c0,1.06-.19,2.04-.57,2.94-.38,.9-.92,1.67-1.61,2.33s-1.52,1.17-2.5,1.53c-.97,.37-2.05,.55-3.24,.55h-5.93v-14.69h5.93c1.19,0,2.27,.19,3.24,.55,.97,.37,1.81,.88,2.5,1.53,.69,.65,1.23,1.43,1.61,2.32,.38,.9,.57,1.87,.57,2.93Zm-3.62,0c0-.73-.1-1.38-.29-1.97-.2-.58-.48-1.08-.84-1.49-.37-.41-.82-.72-1.35-.94-.53-.22-1.13-.33-1.81-.33h-2.37v9.45h2.37c.68,0,1.28-.11,1.81-.33s.98-.53,1.35-.94c.37-.41,.65-.9,.84-1.49,.2-.58,.29-1.24,.29-1.98Z" style="fill:#fff;"/><path d="M96.85,153.78c0,1.06-.19,2.05-.57,2.96-.38,.91-.92,1.71-1.61,2.38-.69,.68-1.52,1.21-2.5,1.59-.97,.38-2.05,.57-3.24,.57s-2.27-.19-3.25-.57c-.98-.38-1.81-.91-2.51-1.59-.7-.67-1.23-1.47-1.61-2.38-.38-.91-.57-1.9-.57-2.96s.19-2.05,.57-2.96c.38-.91,.92-1.71,1.61-2.38,.69-.67,1.53-1.2,2.51-1.58,.98-.38,2.06-.58,3.25-.58s2.27,.19,3.24,.58c.97,.39,1.81,.92,2.5,1.59,.69,.67,1.23,1.47,1.61,2.38,.38,.91,.57,1.9,.57,2.95Zm-3.62,0c0-.73-.1-1.38-.29-1.96s-.48-1.07-.84-1.48c-.37-.4-.82-.71-1.35-.93-.53-.21-1.13-.32-1.81-.32s-1.29,.11-1.83,.32c-.53,.22-.98,.52-1.35,.93s-.65,.9-.84,1.48c-.2,.58-.29,1.24-.29,1.96s.1,1.39,.29,1.97c.2,.58,.48,1.07,.84,1.48s.82,.71,1.35,.92c.53,.21,1.14,.32,1.83,.32s1.28-.11,1.81-.32c.53-.21,.98-.52,1.35-.92,.37-.4,.65-.9,.84-1.48,.2-.58,.29-1.24,.29-1.97Z" style="fill:#fff;"/><path d="M119.32,146.44l-4.71,14.69h-3.2l-2.87-9.1c-.06-.14-.11-.3-.16-.47-.05-.17-.1-.35-.15-.54-.05,.19-.1,.37-.15,.54-.05,.17-.1,.33-.16,.47l-2.91,9.1h-3.21l-4.71-14.69h2.97c.31,0,.56,.07,.77,.2s.34,.31,.4,.53l2.09,7.66c.06,.24,.13,.51,.19,.79,.06,.29,.13,.58,.19,.89,.13-.63,.28-1.19,.46-1.68l2.47-7.66c.06-.19,.2-.36,.4-.51s.46-.23,.75-.23h1.05c.31,0,.55,.07,.74,.21s.33,.31,.43,.53l2.45,7.66c.18,.47,.34,1,.46,1.6,.06-.3,.11-.59,.17-.85,.06-.26,.12-.52,.18-.75l2.09-7.66c.06-.19,.19-.37,.4-.51,.21-.15,.46-.22,.75-.22h2.79Z" style="fill:#fff;"/><path d="M134.17,146.44v14.69h-1.84c-.27,0-.5-.04-.69-.13-.19-.08-.37-.23-.55-.44l-7.2-8.76c.03,.26,.05,.52,.06,.76,.01,.25,.02,.48,.02,.69v7.88h-3.12v-14.69h1.86c.15,0,.28,0,.39,.02s.2,.04,.28,.08c.08,.04,.16,.09,.24,.16,.08,.07,.16,.16,.26,.27l7.26,8.82c-.04-.28-.06-.56-.07-.82s-.02-.52-.02-.75v-7.77h3.12Z" style="fill:#fff;"/><path d="M146.32,158.41v2.72h-9.2v-14.69h3.54v11.97h5.66Z" style="fill:#fff;"/><path d="M162.72,153.78c0,1.06-.19,2.05-.57,2.96-.38,.91-.92,1.71-1.61,2.38-.69,.68-1.52,1.21-2.5,1.59-.97,.38-2.05,.57-3.24,.57s-2.27-.19-3.25-.57c-.98-.38-1.81-.91-2.51-1.59-.7-.67-1.23-1.47-1.61-2.38-.38-.91-.57-1.9-.57-2.96s.19-2.05,.57-2.96c.38-.91,.92-1.71,1.61-2.38,.69-.67,1.53-1.2,2.51-1.58,.98-.38,2.06-.58,3.25-.58s2.27,.19,3.24,.58c.97,.39,1.81,.92,2.5,1.59,.69,.67,1.23,1.47,1.61,2.38,.38,.91,.57,1.9,.57,2.95Zm-3.62,0c0-.73-.1-1.38-.29-1.96s-.48-1.07-.84-1.48c-.37-.4-.82-.71-1.35-.93-.53-.21-1.13-.32-1.81-.32s-1.29,.11-1.83,.32c-.53,.22-.98,.52-1.35,.93s-.65,.9-.84,1.48c-.2,.58-.29,1.24-.29,1.96s.1,1.39,.29,1.97c.2,.58,.48,1.07,.84,1.48s.82,.71,1.35,.92c.53,.21,1.14,.32,1.83,.32s1.28-.11,1.81-.32c.53-.21,.98-.52,1.35-.92,.37-.4,.65-.9,.84-1.48,.2-.58,.29-1.24,.29-1.97Z" style="fill:#fff;"/><path d="M177.98,161.14h-2.74c-.31,0-.55-.07-.74-.21s-.33-.31-.43-.53l-.9-2.56h-5.8l-.9,2.56c-.08,.19-.21,.36-.41,.51s-.45,.23-.74,.23h-2.77l5.91-14.69h3.62l5.91,14.69Zm-5.62-5.62l-1.41-4.02c-.11-.25-.22-.56-.33-.9-.12-.35-.24-.72-.36-1.12-.1,.41-.22,.79-.33,1.14-.12,.35-.23,.65-.34,.91l-1.4,4h4.18Z" style="fill:#fff;"/><path d="M193.03,153.78c0,1.06-.19,2.04-.57,2.94-.38,.9-.92,1.67-1.61,2.33s-1.52,1.17-2.5,1.53c-.97,.37-2.05,.55-3.24,.55h-5.93v-14.69h5.93c1.19,0,2.27,.19,3.24,.55,.97,.37,1.81,.88,2.5,1.53,.69,.65,1.23,1.43,1.61,2.32,.38,.9,.57,1.87,.57,2.93Zm-3.62,0c0-.73-.1-1.38-.29-1.97-.2-.58-.48-1.08-.84-1.49-.37-.41-.82-.72-1.35-.94-.53-.22-1.13-.33-1.81-.33h-2.37v9.45h2.37c.68,0,1.28-.11,1.81-.33s.98-.53,1.35-.94c.37-.41,.65-.9,.84-1.49,.2-.58,.29-1.24,.29-1.98Z" style="fill:#fff;"/></g></g></g></g></svg>