<?xml version="1.0" encoding="UTF-8"?><svg id="Layer_2" xmlns="http://www.w3.org/2000/svg" xmlns:xlink="http://www.w3.org/1999/xlink" viewBox="0 0 197.33 174.68"><defs><filter id="drop-shadow-1" filterUnits="userSpaceOnUse"><feOffset dx="4" dy="4"/><feGaussianBlur result="blur" stdDeviation="3"/><feFlood flood-color="#1a1c31" flood-opacity=".3"/><feComposite in2="blur" operator="in"/><feComposite in="SourceGraphic"/></filter></defs><g id="Layer_3"><g style="filter:url(#drop-shadow-1);"><g><polygon points="196.83 174.18 .5 174.18 .5 174.18 .5 .5 196.83 .5 196.83 174.18 196.83 174.18" style="fill:#f4e65a;"/><path d="M151.63,92.76H45.69c-9.39,0-17-7.61-17-17h0c0-9.39,7.61-17,17-17h105.94c9.39,0,17,7.61,17,17h0c0,9.39-7.61,17-17,17Z" style="fill:#d34448;"/><g><path d="M60.17,77.41v5.16h-2.56v-5.16l-5.04-8.16h2.27c.22,0,.4,.05,.53,.16s.24,.24,.33,.4l2.53,4.45c.15,.26,.28,.51,.39,.75,.11,.23,.21,.47,.3,.7,.08-.23,.18-.47,.29-.7s.23-.48,.37-.75l2.52-4.45c.07-.13,.18-.26,.32-.38,.14-.12,.32-.17,.54-.17h2.28l-5.04,8.16Z" style="fill:#21264c;"/><path d="M68.43,72.97c.73,0,1.39,.11,1.99,.34,.6,.23,1.11,.55,1.53,.97,.42,.42,.75,.93,.98,1.53,.23,.6,.34,1.27,.34,2.02s-.12,1.42-.34,2.03-.56,1.11-.98,1.54-.93,.75-1.53,.98c-.6,.23-1.26,.34-1.99,.34s-1.4-.11-2-.34c-.6-.23-1.11-.55-1.54-.98-.42-.42-.75-.94-.99-1.54-.23-.6-.35-1.28-.35-2.03s.12-1.42,.35-2.02c.23-.6,.56-1.11,.99-1.53,.42-.42,.94-.74,1.54-.97s1.27-.34,2-.34Zm0,7.98c.82,0,1.42-.26,1.81-.79,.39-.53,.59-1.3,.59-2.32s-.2-1.79-.59-2.33c-.39-.53-1-.8-1.81-.8s-1.44,.27-1.84,.81c-.4,.54-.6,1.31-.6,2.33s.2,1.79,.6,2.32c.4,.53,1.01,.8,1.84,.8Z" style="fill:#21264c;"/><path d="M83.54,73.12v9.45h-1.44c-.31,0-.51-.14-.59-.41l-.16-.76c-.4,.39-.84,.71-1.33,.95-.49,.24-1.06,.36-1.71,.36-.54,0-1.01-.09-1.42-.26-.41-.17-.76-.42-1.04-.74-.28-.32-.49-.7-.64-1.14-.14-.44-.21-.92-.21-1.45v-6h2.36v6c0,.58,.14,1.02,.42,1.34,.28,.32,.69,.47,1.25,.47,.41,0,.79-.09,1.15-.26,.36-.17,.7-.42,1.01-.72v-6.83h2.36Z" style="fill:#21264c;"/><path d="M109.18,69.25l-4.3,13.32h-2.32l-3.02-9.1c-.08-.22-.16-.49-.23-.81-.04,.15-.08,.3-.12,.43-.04,.13-.08,.26-.12,.38l-3.05,9.1h-2.33l-4.29-13.32h2.15c.22,0,.41,.05,.56,.15,.15,.1,.25,.24,.3,.41l2.35,7.97c.05,.2,.1,.41,.15,.64s.1,.47,.15,.72c.05-.26,.11-.5,.17-.73,.06-.23,.13-.44,.2-.64l2.72-7.97c.05-.14,.15-.27,.3-.39,.15-.12,.33-.17,.55-.17h.76c.22,0,.41,.05,.55,.16,.14,.1,.25,.24,.32,.4l2.71,7.97c.13,.38,.25,.82,.36,1.32,.08-.49,.18-.92,.28-1.32l2.35-7.97c.04-.15,.14-.29,.29-.4s.34-.17,.56-.17h2.02Z" style="fill:#21264c;"/><path d="M123.79,75.91c0,.98-.17,1.88-.5,2.71s-.81,1.55-1.42,2.16c-.61,.61-1.35,1.08-2.21,1.42-.86,.34-1.82,.51-2.87,.51s-2-.17-2.86-.51c-.86-.34-1.6-.82-2.21-1.42-.62-.61-1.09-1.33-1.43-2.16s-.51-1.74-.51-2.71,.17-1.88,.51-2.71,.81-1.55,1.43-2.16c.62-.61,1.35-1.08,2.21-1.42,.86-.34,1.81-.51,2.86-.51,.7,0,1.36,.08,1.98,.24,.62,.16,1.19,.38,1.7,.66,.52,.29,.98,.63,1.39,1.04,.41,.41,.76,.86,1.05,1.37,.29,.5,.5,1.05,.66,1.64,.15,.59,.22,1.21,.22,1.86Zm-2.63,0c0-.73-.1-1.39-.31-1.97s-.49-1.07-.87-1.48c-.38-.41-.83-.71-1.37-.93s-1.15-.32-1.82-.32-1.28,.11-1.82,.32c-.54,.21-1,.52-1.38,.93-.38,.41-.67,.9-.88,1.48s-.31,1.24-.31,1.97,.1,1.39,.31,1.97c.2,.58,.5,1.07,.88,1.47,.38,.4,.84,.71,1.38,.93,.54,.21,1.15,.32,1.82,.32s1.28-.11,1.82-.32,1-.52,1.37-.93c.38-.4,.67-.89,.87-1.47,.2-.58,.31-1.24,.31-1.97Z" style="fill:#21264c;"/><path d="M137.72,69.25v13.32h-1.32c-.2,0-.38-.03-.51-.1-.14-.06-.27-.17-.4-.33l-7.22-8.88c.04,.41,.06,.78,.06,1.12v8.18h-2.27v-13.32h1.35c.11,0,.2,0,.28,.01,.08,0,.15,.03,.21,.06s.12,.07,.18,.12c.06,.05,.12,.12,.19,.21l7.25,8.91c-.02-.21-.04-.43-.05-.64-.01-.21-.02-.4-.02-.58v-8.09h2.27Z" style="fill:#21264c;"/><path d="M140.48,81.32c0-.19,.04-.37,.11-.54s.17-.32,.31-.44c.13-.12,.29-.22,.46-.29,.18-.07,.37-.11,.57-.11s.39,.04,.56,.11c.18,.07,.33,.17,.46,.29,.13,.12,.23,.27,.31,.44,.08,.17,.12,.35,.12,.54s-.04,.38-.12,.55c-.08,.17-.18,.31-.31,.44-.13,.12-.29,.22-.46,.29-.18,.07-.37,.11-.56,.11s-.4-.04-.57-.11c-.18-.07-.33-.17-.46-.29-.13-.12-.23-.27-.31-.44s-.11-.35-.11-.55Zm2.59-12.06v5.27c0,.56-.03,1.11-.09,1.64-.06,.54-.13,1.11-.22,1.71h-1.61c-.09-.6-.16-1.17-.22-1.71-.06-.54-.09-1.08-.09-1.64v-5.27h2.22Z" style="fill:#21264c;"/></g></g><polyline points=".5 30.42 .5 .5 196.83 .5 196.83 30.42" style="fill:#c6c6c6;"/><polygon points="196.83 174.18 .5 174.18 .5 174.18 .5 .5 196.83 .5 196.83 174.18 196.83 174.18" style="fill:none; stroke:#c6c6c6; stroke-miterlimit:10;"/><g><line x1="179.86" y1="11.95" x2="186.89" y2="18.97" style="fill:none; stroke:#333; stroke-miterlimit:10;"/><line x1="186.89" y1="11.95" x2="179.86" y2="18.97" style="fill:none; stroke:#333; stroke-miterlimit:10;"/></g><rect x="161.61" y="11.95" width="7.02" height="7.02" style="fill:none; stroke:#333; stroke-miterlimit:10;"/><line x1="149.62" y1="15.46" x2="142.6" y2="15.46" style="fill:none; stroke:#333; stroke-miterlimit:10;"/><rect x=".5" y="30.42" width="196.33" height=".84" style="fill:#aaa;"/></g></g></svg>