<?xml version="1.0" encoding="UTF-8"?><svg id="Layer_2" xmlns="http://www.w3.org/2000/svg" xmlns:xlink="http://www.w3.org/1999/xlink" viewBox="0 0 230.75 150.59"><defs><filter id="drop-shadow-1" filterUnits="userSpaceOnUse"><feOffset dx="4" dy="4"/><feGaussianBlur result="blur" stdDeviation="3"/><feFlood flood-color="#1a1c31" flood-opacity=".3"/><feComposite in2="blur" operator="in"/><feComposite in="SourceGraphic"/></filter><clipPath id="clippath"><rect x="22.19" y="78.3" width="186.37" height="22.5" style="fill:#21264c;"/></clipPath></defs><g id="Layer_3"><g style="filter:url(#drop-shadow-1);"><g><polygon points="230.25 150.09 .5 150.09 .5 150.09 .5 .5 230.25 .5 230.25 150.09 230.25 150.09" style="fill:#fff;"/><polyline points=".5 32.23 .5 .5 230.25 .5 230.25 32.23" style="fill:#c6c6c6;"/><polygon points="230.25 150.09 .5 150.09 .5 150.09 .5 .5 230.25 .5 230.25 150.09 230.25 150.09" style="fill:none; stroke:#c6c6c6; stroke-miterlimit:10;"/><g><line x1="212.26" y1="12.64" x2="219.71" y2="20.09" style="fill:none; stroke:#333; stroke-miterlimit:10;"/><line x1="219.71" y1="12.64" x2="212.26" y2="20.09" style="fill:none; stroke:#333; stroke-miterlimit:10;"/></g><rect x="192.91" y="12.64" width="7.45" height="7.45" style="fill:none; stroke:#333; stroke-miterlimit:10;"/><line x1="180.2" y1="16.36" x2="172.75" y2="16.36" style="fill:none; stroke:#333; stroke-miterlimit:10;"/><rect x=".5" y="32.23" width="229.75" height=".89" style="fill:#aaa;"/></g><g><g><path d="M83.72,118.61c-.08,.14-.17,.25-.27,.31-.09,.06-.21,.1-.35,.1s-.31-.05-.48-.16c-.17-.11-.38-.22-.62-.35-.24-.13-.52-.25-.84-.35-.32-.11-.7-.16-1.14-.16-.4,0-.74,.05-1.04,.14-.3,.09-.54,.22-.75,.38-.2,.16-.35,.36-.45,.59s-.15,.48-.15,.75c0,.35,.1,.64,.3,.87s.47,.43,.8,.59c.33,.16,.71,.31,1.13,.44s.86,.27,1.3,.41c.44,.15,.88,.32,1.3,.51s.8,.44,1.13,.73c.33,.29,.6,.66,.8,1.08s.3,.95,.3,1.56c0,.67-.12,1.29-.35,1.87-.24,.58-.58,1.09-1.04,1.52-.46,.43-1.01,.77-1.67,1.02-.66,.25-1.41,.37-2.25,.37-.49,0-.97-.05-1.44-.14-.47-.09-.92-.22-1.36-.39-.43-.17-.84-.37-1.22-.61s-.72-.5-1.02-.79l.84-1.31c.07-.09,.16-.17,.28-.24,.11-.06,.23-.1,.36-.1,.18,0,.37,.07,.57,.21,.2,.14,.45,.29,.73,.46,.28,.17,.61,.32,.99,.46,.38,.14,.83,.21,1.36,.21,.81,0,1.44-.19,1.88-.56s.67-.9,.67-1.59c0-.39-.1-.7-.3-.95-.2-.24-.47-.45-.8-.62-.33-.17-.71-.31-1.13-.42-.42-.12-.85-.24-1.29-.38-.44-.14-.87-.3-1.29-.49-.42-.19-.8-.44-1.13-.74-.33-.31-.6-.69-.8-1.15-.2-.46-.3-1.02-.3-1.7,0-.54,.11-1.06,.33-1.57,.22-.51,.54-.96,.97-1.35,.42-.39,.95-.71,1.57-.95,.62-.24,1.33-.36,2.14-.36,.9,0,1.74,.14,2.5,.41s1.41,.65,1.95,1.14l-.71,1.29Z" style="fill:#d34448;"/><path d="M90.03,122.1h.67c.27,0,.49-.04,.67-.11,.18-.07,.33-.19,.46-.34l4.22-5.14c.18-.22,.36-.37,.56-.45,.19-.08,.44-.13,.74-.13h2.45l-5.15,6.12c-.3,.37-.62,.64-.94,.79,.23,.08,.44,.2,.63,.34,.19,.15,.36,.34,.53,.58l5.31,6.89h-2.51c-.34,0-.59-.05-.76-.14s-.31-.23-.42-.4l-4.33-5.44c-.13-.18-.29-.31-.46-.39-.18-.07-.43-.11-.76-.11h-.9v6.48h-2.85v-14.73h2.85v6.17Z" style="fill:#d34448;"/><path d="M104.54,130.66h-2.86v-14.73h2.86v14.73Z" style="fill:#d34448;"/><path d="M112.93,115.93c1.02,0,1.91,.12,2.66,.35,.75,.23,1.37,.55,1.85,.97s.85,.91,1.08,1.49c.24,.58,.35,1.21,.35,1.89s-.12,1.37-.37,1.96c-.25,.59-.62,1.11-1.11,1.53-.49,.43-1.11,.76-1.86,1s-1.61,.36-2.61,.36h-2.13v5.18h-2.85v-14.73h4.97Zm0,7.4c.52,0,.98-.06,1.37-.19s.71-.31,.97-.54,.45-.52,.58-.86,.19-.71,.19-1.12-.06-.75-.19-1.07-.32-.59-.57-.81c-.25-.22-.57-.4-.96-.51-.39-.12-.85-.18-1.38-.18h-2.13v5.29h2.13Z" style="fill:#d34448;"/><path d="M138,130.66h-2.2c-.25,0-.45-.06-.6-.18-.16-.12-.27-.27-.35-.44l-1.14-3h-6.34l-1.14,3c-.06,.16-.17,.3-.33,.43s-.36,.19-.6,.19h-2.22l6.02-14.73h2.9l6.01,14.73Zm-5.03-5.56l-1.86-4.9c-.09-.22-.19-.48-.29-.77-.1-.3-.2-.62-.3-.97-.09,.35-.19,.67-.29,.97-.1,.3-.19,.56-.29,.79l-1.85,4.88h4.87Z" style="fill:#d34448;"/><path d="M153.17,123.3c0,1.08-.19,2.07-.56,2.97-.37,.9-.9,1.68-1.58,2.33-.68,.65-1.49,1.16-2.44,1.52-.95,.36-2.01,.54-3.17,.54h-5.83v-14.73h5.83c1.16,0,2.22,.18,3.17,.54s1.77,.87,2.44,1.52,1.2,1.42,1.58,2.33c.37,.9,.56,1.89,.56,2.97Zm-2.92,0c0-.81-.11-1.53-.33-2.17-.22-.64-.54-1.18-.96-1.63-.42-.44-.93-.79-1.52-1.02-.6-.24-1.27-.36-2.02-.36h-2.97v10.37h2.97c.75,0,1.42-.12,2.02-.36,.6-.24,1.1-.58,1.52-1.02,.42-.44,.74-.99,.96-1.63,.22-.64,.33-1.37,.33-2.17Z" style="fill:#d34448;"/></g><g><polygon points="165.78 123.12 161.4 127.51 160.39 126.5 163.77 123.12 160.39 119.74 161.4 118.73 165.78 123.12" style="fill:#d34448;"/><polygon points="170.64 123.12 166.26 127.51 165.25 126.5 168.63 123.12 165.25 119.74 166.26 118.73 170.64 123.12" style="fill:#d34448;"/></g></g><g><path d="M77.84,60.17v2.51h-9.96v-16.36h3.16v13.85h6.79Z" style="fill:#21264c;"/><path d="M84.36,50.89c.89,0,1.71,.14,2.44,.42,.73,.28,1.36,.67,1.88,1.19,.52,.51,.92,1.14,1.21,1.88s.42,1.57,.42,2.48-.14,1.75-.42,2.49-.68,1.37-1.21,1.89c-.52,.52-1.15,.92-1.88,1.2-.73,.28-1.54,.42-2.44,.42s-1.72-.14-2.46-.42-1.37-.68-1.89-1.2c-.52-.52-.92-1.15-1.21-1.89s-.43-1.57-.43-2.49,.14-1.74,.43-2.48,.69-1.37,1.21-1.88c.52-.51,1.15-.91,1.89-1.19s1.56-.42,2.46-.42Zm0,9.81c1,0,1.75-.32,2.23-.97,.48-.65,.72-1.6,.72-2.85s-.24-2.21-.72-2.86c-.48-.66-1.22-.98-2.23-.98s-1.77,.33-2.26,.99c-.49,.66-.73,1.61-.73,2.86s.24,2.19,.73,2.85c.49,.65,1.24,.98,2.26,.98Z" style="fill:#21264c;"/><path d="M92.25,52.69c1.39-1.22,3.06-1.83,5.01-1.83,.71,0,1.34,.11,1.89,.33s1.03,.53,1.41,.93c.38,.4,.68,.87,.88,1.42,.2,.55,.3,1.15,.3,1.81v7.33h-1.32c-.27,0-.49-.04-.63-.12-.15-.08-.27-.24-.35-.48l-.26-.84c-.31,.26-.6,.5-.89,.7s-.59,.37-.91,.5-.65,.24-1,.31c-.36,.07-.75,.11-1.18,.11-.51,0-.98-.07-1.41-.2s-.8-.33-1.12-.59c-.31-.26-.56-.59-.73-.98-.17-.39-.26-.85-.26-1.37,0-.29,.05-.59,.15-.88,.1-.29,.27-.57,.5-.83,.23-.26,.53-.51,.9-.75,.37-.23,.82-.44,1.36-.61,.54-.17,1.16-.31,1.88-.42,.71-.11,1.53-.17,2.44-.2v-.68c0-.78-.17-1.35-.52-1.73-.35-.37-.84-.56-1.49-.56-.47,0-.86,.05-1.17,.16s-.58,.22-.82,.36-.45,.25-.64,.36c-.19,.11-.41,.16-.64,.16-.2,0-.38-.05-.52-.15-.14-.1-.25-.22-.34-.36l-.52-.89Zm6.65,5.04c-.84,.04-1.54,.11-2.12,.21-.57,.1-1.03,.23-1.38,.39s-.59,.34-.74,.55-.22,.44-.22,.69c0,.49,.15,.84,.45,1.05s.7,.32,1.18,.32c.6,0,1.11-.1,1.55-.31,.44-.21,.86-.52,1.28-.95v-1.96Z" style="fill:#21264c;"/><path d="M114.94,45.87v16.82h-1.78c-.38,0-.63-.17-.73-.51l-.25-1.12c-.49,.54-1.04,.97-1.67,1.3s-1.37,.5-2.2,.5c-.66,0-1.26-.13-1.81-.4-.55-.26-1.02-.65-1.42-1.15-.4-.5-.7-1.12-.92-1.86-.22-.74-.32-1.58-.32-2.53,0-.86,.12-1.66,.36-2.4,.24-.74,.59-1.38,1.05-1.92,.45-.54,1-.97,1.63-1.27,.63-.31,1.35-.46,2.14-.46,.67,0,1.25,.1,1.73,.31,.48,.2,.91,.48,1.28,.83v-6.12h2.9Zm-2.9,8.17c-.33-.38-.69-.66-1.08-.81-.39-.16-.81-.24-1.25-.24s-.83,.08-1.19,.24-.65,.4-.91,.72-.44,.73-.58,1.22c-.13,.49-.2,1.08-.2,1.75s.06,1.25,.17,1.73c.11,.47,.28,.86,.49,1.15,.21,.3,.47,.51,.78,.65s.65,.2,1.02,.2c.6,0,1.12-.12,1.54-.36s.82-.58,1.2-1.03v-5.21Z" style="fill:#21264c;"/><path d="M121.21,47.69c0,.24-.05,.47-.15,.68-.1,.21-.24,.4-.41,.55-.17,.16-.37,.29-.59,.38-.23,.09-.47,.14-.73,.14s-.49-.05-.71-.14c-.22-.09-.42-.22-.58-.38-.16-.16-.3-.34-.39-.55-.1-.21-.15-.44-.15-.68s.05-.48,.15-.7,.23-.41,.39-.57c.17-.16,.36-.28,.58-.38s.46-.14,.71-.14,.5,.05,.73,.14c.23,.09,.43,.22,.59,.38,.17,.16,.3,.35,.41,.57,.1,.22,.15,.45,.15,.7Zm-.4,3.38v11.61h-2.92v-11.61h2.92Z" style="fill:#21264c;"/><path d="M126.49,52.5c.24-.23,.5-.45,.77-.65,.27-.2,.56-.37,.86-.51s.62-.25,.97-.33,.72-.12,1.13-.12c.66,0,1.24,.11,1.75,.32,.51,.22,.93,.52,1.28,.91,.34,.39,.6,.85,.78,1.39,.18,.54,.26,1.13,.26,1.78v7.39h-2.9v-7.39c0-.71-.17-1.26-.51-1.65s-.85-.58-1.54-.58c-.5,0-.97,.11-1.41,.33-.44,.22-.85,.52-1.25,.89v8.4h-2.9v-11.61h1.78c.38,0,.62,.17,.74,.51l.2,.92Z" style="fill:#21264c;"/><path d="M147.61,51.47v1.04c0,.33-.21,.54-.62,.61l-1.08,.19c.16,.4,.25,.84,.25,1.31,0,.57-.12,1.09-.36,1.56-.24,.46-.57,.86-.99,1.18-.42,.32-.92,.58-1.5,.75-.58,.18-1.2,.27-1.86,.27-.24,0-.46-.01-.68-.03s-.43-.05-.65-.09c-.38,.22-.56,.46-.56,.74,0,.23,.11,.41,.33,.51,.22,.11,.52,.19,.89,.23,.37,.05,.79,.07,1.26,.08,.47,.01,.95,.04,1.45,.07,.49,.04,.98,.1,1.45,.2,.47,.09,.89,.24,1.26,.45,.37,.2,.66,.48,.89,.83,.22,.35,.33,.8,.33,1.35,0,.51-.13,1.01-.39,1.49-.26,.48-.64,.91-1.14,1.29-.5,.38-1.11,.68-1.83,.91-.72,.23-1.55,.34-2.47,.34s-1.7-.08-2.37-.25-1.23-.4-1.68-.68-.78-.61-1-.98c-.22-.37-.33-.75-.33-1.15,0-.54,.17-1,.51-1.36,.34-.37,.81-.66,1.41-.88-.32-.16-.58-.37-.76-.63-.19-.26-.28-.61-.28-1.04,0-.17,.03-.35,.1-.54,.07-.18,.16-.37,.29-.55,.13-.18,.29-.35,.49-.51,.2-.16,.43-.31,.69-.44-.61-.32-1.09-.74-1.44-1.27-.35-.53-.52-1.15-.52-1.86,0-.57,.12-1.09,.36-1.56,.24-.46,.57-.86,1-1.19,.43-.33,.93-.58,1.52-.75,.58-.17,1.22-.26,1.91-.26,.52,0,1,.05,1.46,.15,.45,.1,.87,.25,1.25,.45h3.47Zm-2.89,11.73c0-.23-.07-.41-.21-.55-.14-.14-.33-.25-.58-.33-.24-.08-.53-.14-.85-.17s-.67-.07-1.03-.08-.74-.04-1.13-.05c-.39-.02-.77-.05-1.13-.09-.32,.17-.58,.38-.78,.61-.2,.23-.3,.5-.3,.81,0,.2,.05,.39,.16,.57,.11,.18,.27,.33,.51,.46,.23,.13,.53,.23,.9,.3,.37,.07,.82,.11,1.35,.11s1.01-.04,1.4-.12,.71-.19,.97-.33,.44-.31,.56-.5c.12-.19,.18-.4,.18-.63Zm-3.28-6.61c.36,0,.67-.05,.94-.14,.27-.09,.49-.22,.66-.39,.18-.17,.31-.37,.4-.6,.09-.23,.14-.49,.14-.77,0-.57-.18-1.03-.54-1.36-.36-.33-.89-.5-1.6-.5s-1.25,.17-1.6,.5c-.36,.34-.54,.79-.54,1.36,0,.27,.05,.52,.14,.76,.09,.23,.22,.44,.4,.61,.18,.17,.4,.3,.67,.4,.27,.09,.58,.14,.93,.14Z" style="fill:#21264c;"/><path d="M149.02,61.14c0-.23,.04-.46,.14-.67,.09-.21,.21-.39,.37-.54,.16-.15,.34-.27,.56-.36,.22-.09,.46-.14,.71-.14s.48,.05,.7,.14c.21,.09,.4,.21,.56,.36,.16,.15,.29,.33,.38,.54,.09,.21,.14,.43,.14,.67s-.05,.47-.14,.67c-.09,.21-.22,.39-.38,.54-.16,.15-.35,.27-.56,.36-.22,.09-.45,.13-.7,.13s-.49-.04-.71-.13c-.22-.09-.41-.21-.56-.36-.16-.15-.28-.33-.37-.54-.09-.21-.14-.43-.14-.67Z" style="fill:#21264c;"/><path d="M154.61,61.14c0-.23,.04-.46,.14-.67,.09-.21,.21-.39,.37-.54,.16-.15,.34-.27,.56-.36,.22-.09,.46-.14,.71-.14s.48,.05,.7,.14c.21,.09,.4,.21,.56,.36,.16,.15,.29,.33,.38,.54,.09,.21,.14,.43,.14,.67s-.05,.47-.14,.67c-.09,.21-.22,.39-.38,.54-.16,.15-.35,.27-.56,.36-.22,.09-.45,.13-.7,.13s-.49-.04-.71-.13c-.22-.09-.41-.21-.56-.36-.16-.15-.28-.33-.37-.54-.09-.21-.14-.43-.14-.67Z" style="fill:#21264c;"/><path d="M160.19,61.14c0-.23,.04-.46,.14-.67,.09-.21,.21-.39,.37-.54,.16-.15,.34-.27,.56-.36,.22-.09,.46-.14,.71-.14s.48,.05,.7,.14c.21,.09,.4,.21,.56,.36,.16,.15,.29,.33,.38,.54,.09,.21,.14,.43,.14,.67s-.05,.47-.14,.67c-.09,.21-.22,.39-.38,.54-.16,.15-.35,.27-.56,.36-.22,.09-.45,.13-.7,.13s-.49-.04-.71-.13c-.22-.09-.41-.21-.56-.36-.16-.15-.28-.33-.37-.54-.09-.21-.14-.43-.14-.67Z" style="fill:#21264c;"/></g><g><g><rect x="22.19" y="78.3" width="186.37" height="22.5" style="fill:#21264c;"/><g style="clip-path:url(#clippath);"><g><rect x="-28.17" y="86.98" width="103.52" height="18.38" transform="translate(-72.68 73) rotate(-62.69)" style="fill:#f4e65a;"/><rect x="5.34" y="86.98" width="103.52" height="18.38" transform="translate(-54.54 102.78) rotate(-62.69)" style="fill:#f4e65a;"/><rect x="38.85" y="86.98" width="103.52" height="18.38" transform="translate(-36.41 132.55) rotate(-62.69)" style="fill:#f4e65a;"/><rect x="72.37" y="86.98" width="103.52" height="18.38" transform="translate(-18.27 162.33) rotate(-62.69)" style="fill:#f4e65a;"/></g></g></g><rect x="22.19" y="78.3" width="186.37" height="22.5" style="fill:none; stroke:#21264c; stroke-miterlimit:10; stroke-width:2px;"/></g></g></g></svg>