<?xml version="1.0" encoding="UTF-8"?><svg id="Layer_2" xmlns="http://www.w3.org/2000/svg" xmlns:xlink="http://www.w3.org/1999/xlink" viewBox="0 0 268.5 247.03"><defs><filter id="drop-shadow-1" filterUnits="userSpaceOnUse"><feOffset dx="4" dy="4"/><feGaussianBlur result="blur" stdDeviation="3"/><feFlood flood-color="#1a1c31" flood-opacity=".3"/><feComposite in2="blur" operator="in"/><feComposite in="SourceGraphic"/></filter><clipPath id="clippath"><polygon points="268 246.53 .5 246.53 .5 246.53 .5 .5 268 .5 268 246.53 268 246.53" style="fill:#d34448;"/></clipPath></defs><g id="Layer_3"><g style="filter:url(#drop-shadow-1);"><g><g><g><polygon points="268 246.53 .5 246.53 .5 246.53 .5 .5 268 .5 268 246.53 268 246.53" style="fill:#d34448;"/><g style="clip-path:url(#clippath);"><g><g><polygon points="25.52 248.14 -4.27 237.07 -4.27 250.51 25.52 261.58 25.52 248.14" style="fill:#21264c;"/><polygon points="25.52 222.98 -4.27 211.91 -4.27 225.35 25.52 236.41 25.52 222.98" style="fill:#21264c;"/><polygon points="25.52 197.82 -4.27 186.75 -4.27 200.19 25.52 211.25 25.52 197.82" style="fill:#21264c;"/><polygon points="25.52 172.65 -4.27 161.59 -4.27 175.02 25.52 186.09 25.52 172.65" style="fill:#21264c;"/><polygon points="25.52 147.49 -4.27 136.42 -4.27 149.86 25.52 160.93 25.52 147.49" style="fill:#21264c;"/><polygon points="25.52 122.33 -4.27 111.26 -4.27 124.7 25.52 135.76 25.52 122.33" style="fill:#21264c;"/><polygon points="25.52 97.17 -4.27 86.1 -4.27 99.54 25.52 110.6 25.52 97.17" style="fill:#21264c;"/><polygon points="25.52 72 -4.27 60.94 -4.27 74.37 25.52 85.44 25.52 72" style="fill:#21264c;"/><polygon points="25.52 46.84 -4.27 35.78 -4.27 49.21 25.52 60.28 25.52 46.84" style="fill:#21264c;"/><polygon points="25.52 21.68 -4.27 10.61 -4.27 24.05 25.52 35.11 25.52 21.68" style="fill:#21264c;"/><polygon points="25.52 -3.48 -4.27 -14.55 -4.27 -1.11 25.52 9.95 25.52 -3.48" style="fill:#21264c;"/></g><g><polygon points="272.77 -1.11 242.98 9.95 242.98 -3.48 272.77 -14.55 272.77 -1.11" style="fill:#21264c;"/><polygon points="272.77 24.05 242.98 35.11 242.98 21.68 272.77 10.61 272.77 24.05" style="fill:#21264c;"/><polygon points="272.77 49.21 242.98 60.28 242.98 46.84 272.77 35.78 272.77 49.21" style="fill:#21264c;"/><polygon points="272.77 74.37 242.98 85.44 242.98 72 272.77 60.94 272.77 74.37" style="fill:#21264c;"/><polygon points="272.77 99.54 242.98 110.6 242.98 97.17 272.77 86.1 272.77 99.54" style="fill:#21264c;"/><polygon points="272.77 124.7 242.98 135.76 242.98 122.33 272.77 111.26 272.77 124.7" style="fill:#21264c;"/><polygon points="272.77 149.86 242.98 160.93 242.98 147.49 272.77 136.42 272.77 149.86" style="fill:#21264c;"/><polygon points="272.77 175.02 242.98 186.09 242.98 172.65 272.77 161.59 272.77 175.02" style="fill:#21264c;"/><polygon points="272.77 200.19 242.98 211.25 242.98 197.82 272.77 186.75 272.77 200.19" style="fill:#21264c;"/><polygon points="272.77 225.35 242.98 236.41 242.98 222.98 272.77 211.91 272.77 225.35" style="fill:#21264c;"/><polygon points="272.77 250.51 242.98 261.58 242.98 248.14 272.77 237.07 272.77 250.51" style="fill:#21264c;"/></g></g></g></g><path d="M185.01,227.19H83.49c-9.55,0-17.29-7.74-17.29-17.29h0c0-9.55,7.74-17.29,17.29-17.29h101.53c9.55,0,17.29,7.74,17.29,17.29h0c0,9.55-7.74,17.29-17.29,17.29Z" style="fill:#f4e65a;"/></g><polyline points=".5 33.93 .5 .5 268 .5 268 33.93" style="fill:#c6c6c6;"/><polygon points="268 246.53 .5 246.53 .5 246.53 .5 .5 268 .5 268 246.53 268 246.53" style="fill:none; stroke:#c6c6c6; stroke-miterlimit:10;"/><g><line x1="249.05" y1="13.29" x2="256.89" y2="21.14" style="fill:none; stroke:#333; stroke-miterlimit:10;"/><line x1="256.89" y1="13.29" x2="249.05" y2="21.14" style="fill:none; stroke:#333; stroke-miterlimit:10;"/></g><rect x="228.65" y="13.29" width="7.85" height="7.85" style="fill:none; stroke:#333; stroke-miterlimit:10;"/><line x1="215.26" y1="17.21" x2="207.41" y2="17.21" style="fill:none; stroke:#333; stroke-miterlimit:10;"/><rect x=".5" y="33.93" width="267.5" height=".94" style="fill:#aaa;"/></g><g><path d="M112.27,69.86h-2.7c-.3,0-.55-.07-.74-.21s-.33-.31-.42-.53l-1.13-3.09h-6.69l-1.13,3.09c-.08,.19-.21,.35-.41,.51-.19,.15-.44,.23-.73,.23h-2.72l6.57-16.17h3.55l6.55,16.17Zm-5.84-6.14l-1.82-4.95c-.11-.26-.22-.56-.34-.91-.12-.35-.23-.73-.34-1.14-.11,.42-.22,.8-.34,1.15-.12,.35-.23,.66-.34,.92l-1.81,4.93h4.99Z" style="fill:#f4e65a;"/><path d="M123.79,67.14v2.72h-9.97v-16.17h3.47v13.46h6.5Z" style="fill:#f4e65a;"/><path d="M129.41,56.3v4.16h5.6v2.53h-5.6v4.25h7.2v2.62h-10.7v-16.17h10.7v2.62h-7.2Z" style="fill:#f4e65a;"/><path d="M152.6,69.86h-3.14c-.59,0-1.01-.22-1.27-.65l-3.2-4.96c-.13-.19-.28-.33-.43-.42-.16-.09-.39-.13-.7-.13h-1.18v6.16h-3.47v-16.17h5.28c1.17,0,2.18,.12,3.01,.35s1.52,.56,2.05,.98c.53,.42,.92,.91,1.17,1.49,.25,.58,.37,1.21,.37,1.9,0,.54-.08,1.04-.24,1.52s-.39,.92-.69,1.31c-.3,.39-.67,.74-1.11,1.05-.44,.3-.94,.55-1.51,.74,.22,.12,.43,.26,.63,.43,.19,.17,.37,.37,.52,.6l3.91,5.82Zm-8.14-8.52c.56,0,1.05-.07,1.46-.21s.75-.33,1.01-.57,.46-.53,.58-.85c.12-.33,.18-.68,.18-1.07,0-.77-.26-1.36-.79-1.78-.53-.42-1.33-.64-2.41-.64h-1.81v5.12h1.78Z" style="fill:#f4e65a;"/><path d="M165.74,56.38h-4.91v13.48h-3.49v-13.48h-4.91v-2.7h13.3v2.7Z" style="fill:#f4e65a;"/><path d="M167.48,68.24c0-.25,.05-.48,.14-.7,.1-.22,.23-.41,.4-.57,.17-.16,.37-.29,.6-.38,.23-.09,.48-.14,.75-.14s.51,.05,.74,.14,.43,.22,.6,.38c.17,.16,.3,.35,.41,.57,.1,.22,.15,.45,.15,.7s-.05,.49-.15,.7-.24,.4-.41,.56c-.17,.16-.37,.29-.6,.37s-.47,.13-.74,.13-.52-.04-.75-.13c-.23-.09-.43-.21-.6-.37-.17-.16-.3-.35-.4-.56s-.14-.45-.14-.7Zm3.42-14.56v6.38c0,.68-.04,1.34-.11,2.01-.07,.66-.18,1.35-.31,2.06h-2.15c-.13-.71-.23-1.4-.31-2.06-.07-.66-.11-1.33-.11-2.01v-6.38h2.99Z" style="fill:#f4e65a;"/></g><g><path d="M88.98,205.8c-.09,.15-.19,.25-.28,.32-.1,.07-.22,.1-.37,.1-.14,0-.3-.05-.47-.15s-.36-.2-.58-.32c-.22-.11-.48-.22-.77-.32-.29-.1-.63-.15-1.01-.15-.68,0-1.19,.15-1.53,.44-.34,.29-.51,.68-.51,1.15,0,.3,.09,.55,.28,.75,.19,.2,.43,.37,.74,.52,.3,.14,.65,.27,1.04,.39s.78,.24,1.19,.37c.41,.13,.8,.29,1.19,.48,.39,.18,.73,.41,1.04,.69s.55,.62,.74,1.02c.19,.4,.28,.89,.28,1.46,0,.62-.11,1.21-.34,1.75-.23,.55-.55,1.02-.98,1.43-.43,.41-.95,.73-1.58,.96-.63,.23-1.33,.35-2.13,.35-.45,0-.9-.04-1.35-.13-.45-.09-.88-.21-1.3-.37-.42-.16-.81-.35-1.17-.57-.37-.22-.69-.47-.96-.74l.87-1.34c.07-.1,.17-.18,.29-.25s.24-.1,.37-.1c.18,0,.36,.06,.56,.19s.42,.26,.68,.42c.26,.15,.55,.29,.89,.42,.34,.13,.74,.19,1.21,.19,.69,0,1.22-.15,1.6-.45,.38-.3,.57-.75,.57-1.35,0-.35-.09-.63-.28-.84s-.43-.39-.73-.54c-.3-.15-.65-.27-1.03-.37-.39-.1-.78-.22-1.19-.35-.41-.13-.8-.28-1.19-.45-.39-.18-.73-.41-1.03-.7-.3-.29-.55-.65-.73-1.08s-.28-.96-.28-1.6c0-.51,.1-1.01,.31-1.49s.52-.91,.92-1.28,.91-.67,1.5-.9c.59-.23,1.27-.34,2.04-.34,.86,0,1.65,.13,2.38,.38,.73,.26,1.35,.61,1.85,1.06l-.73,1.33Z" style="fill:#21264c;"/><path d="M101.79,213.52c.16,0,.3,.06,.41,.17l1.17,1.2c-.58,.71-1.29,1.24-2.15,1.61-.86,.37-1.87,.55-3.05,.55-1.07,0-2.03-.17-2.88-.53-.85-.35-1.58-.84-2.17-1.46-.6-.62-1.05-1.37-1.38-2.22-.32-.86-.48-1.79-.48-2.81,0-.68,.08-1.33,.23-1.94,.15-.62,.38-1.18,.67-1.7,.29-.52,.65-.98,1.07-1.4s.89-.77,1.41-1.06,1.1-.52,1.71-.67,1.28-.23,1.98-.23c.52,0,1.02,.04,1.49,.13,.47,.09,.91,.21,1.31,.37,.41,.16,.78,.35,1.12,.57,.34,.22,.65,.47,.93,.73l-.99,1.31c-.06,.08-.13,.15-.23,.22-.09,.06-.22,.09-.37,.09s-.32-.05-.48-.16-.36-.23-.59-.36-.52-.25-.87-.36c-.35-.11-.79-.16-1.33-.16-.6,0-1.14,.1-1.64,.31s-.92,.51-1.28,.9-.63,.88-.83,1.45c-.2,.57-.29,1.23-.29,1.96s.11,1.4,.32,1.97c.21,.58,.5,1.06,.88,1.46,.37,.4,.8,.7,1.3,.9,.49,.21,1.02,.31,1.59,.31,.33,0,.64-.02,.91-.05s.52-.08,.76-.16c.23-.08,.45-.17,.66-.29,.21-.12,.41-.27,.62-.45,.07-.06,.15-.1,.23-.14,.08-.04,.16-.06,.25-.06Z" style="fill:#21264c;"/><path d="M117.52,216.9h-2.29c-.25,0-.46-.06-.62-.17-.16-.12-.28-.27-.36-.45l-.96-2.62h-5.68l-.96,2.62c-.07,.16-.18,.3-.34,.43-.16,.13-.37,.19-.62,.19h-2.31l5.57-13.73h3.02l5.56,13.73Zm-4.95-5.21l-1.54-4.2c-.09-.22-.19-.48-.29-.78-.1-.3-.2-.62-.29-.96-.09,.35-.19,.68-.29,.98-.1,.3-.2,.56-.29,.78l-1.53,4.18h4.24Z" style="fill:#21264c;"/><path d="M131.05,203.17v13.73h-1.52c-.23,0-.42-.04-.58-.11-.16-.07-.31-.2-.46-.37l-7.11-8.7c.02,.22,.03,.44,.04,.65,0,.21,.01,.41,.01,.6v7.94h-2.6v-13.73h1.55c.12,0,.23,0,.32,.01,.09,0,.17,.03,.24,.07,.07,.04,.14,.08,.21,.14,.07,.06,.14,.13,.22,.23l7.15,8.74c-.03-.24-.05-.47-.06-.7-.01-.22-.02-.44-.02-.64v-7.85h2.6Z" style="fill:#21264c;"/><path d="M150.92,203.17v13.73h-1.52c-.23,0-.42-.04-.58-.11-.16-.07-.31-.2-.46-.37l-7.11-8.7c.02,.22,.03,.44,.04,.65,0,.21,.01,.41,.01,.6v7.94h-2.6v-13.73h1.55c.12,0,.23,0,.32,.01,.09,0,.17,.03,.24,.07,.07,.04,.14,.08,.21,.14,.07,.06,.14,.13,.22,.23l7.15,8.74c-.03-.24-.05-.47-.06-.7-.01-.22-.02-.44-.02-.64v-7.85h2.6Z" style="fill:#21264c;"/><path d="M167.69,210.03c0,1-.18,1.93-.53,2.79-.35,.86-.84,1.6-1.48,2.22-.64,.62-1.41,1.12-2.3,1.47s-1.89,.53-2.99,.53-2.09-.18-2.99-.53-1.67-.85-2.31-1.47c-.64-.62-1.14-1.37-1.49-2.22-.35-.86-.53-1.79-.53-2.79s.18-1.93,.53-2.79c.35-.85,.85-1.59,1.49-2.22,.64-.62,1.41-1.12,2.31-1.47s1.89-.53,2.99-.53,2.09,.18,2.99,.53,1.67,.85,2.3,1.48c.64,.63,1.13,1.37,1.48,2.22s.53,1.78,.53,2.78Zm-3.02,0c0-.72-.1-1.36-.29-1.94-.2-.57-.48-1.06-.85-1.46-.37-.4-.82-.71-1.35-.92-.53-.21-1.12-.32-1.79-.32s-1.27,.11-1.8,.32c-.53,.21-.98,.52-1.35,.92-.37,.4-.65,.89-.85,1.46-.2,.57-.29,1.22-.29,1.94s.1,1.37,.29,1.94c.2,.57,.48,1.06,.85,1.45,.37,.4,.82,.7,1.35,.91,.53,.21,1.13,.32,1.8,.32s1.27-.11,1.79-.32c.53-.21,.98-.52,1.35-.91,.37-.4,.65-.88,.85-1.45,.2-.57,.29-1.22,.29-1.94Z" style="fill:#21264c;"/><path d="M188.71,203.17l-4.42,13.73h-2.66l-2.92-8.98c-.05-.13-.09-.26-.14-.42s-.09-.31-.13-.48c-.04,.17-.08,.33-.13,.48s-.09,.29-.14,.42l-2.95,8.98h-2.67l-4.41-13.73h2.48c.25,0,.47,.06,.64,.17s.29,.26,.34,.45l2.21,7.74c.05,.21,.11,.45,.16,.7s.11,.51,.16,.79c.06-.28,.12-.55,.19-.79,.07-.25,.14-.48,.22-.69l2.58-7.74c.05-.16,.17-.3,.34-.43,.17-.13,.38-.19,.63-.19h.87c.25,0,.46,.06,.62,.17,.16,.12,.28,.27,.36,.45l2.56,7.74c.08,.2,.15,.42,.22,.66s.13,.49,.19,.75c.05-.26,.1-.52,.15-.75s.1-.46,.15-.66l2.21-7.74c.05-.16,.16-.31,.33-.43,.18-.13,.39-.19,.64-.19h2.32Z" style="fill:#21264c;"/></g><g><path d="M63.96,139.44l-15.17-44.75h6.48l7.24,22.04c2,6.04,3.72,11.49,4.97,16.73h.14c1.31-5.18,3.24-10.82,5.31-16.66l7.86-22.11h6.42l-16.62,44.75h-6.62Z" style="fill:#fff;"/><path d="M98.24,94.69v44.75h-6v-44.75h6Z" style="fill:#fff;"/><path d="M108.72,95.29c3.03-.6,7.38-.93,11.52-.93,6.41,0,10.55,1.13,13.45,3.65,2.34,1.99,3.66,5.05,3.66,8.5,0,5.91-3.86,9.83-8.76,11.42v.2c3.59,1.2,5.72,4.38,6.83,9.03,1.52,6.24,2.62,10.56,3.59,12.28h-6.21c-.76-1.26-1.79-5.11-3.1-10.69-1.38-6.17-3.86-8.5-9.31-8.7h-5.66v19.39h-6v-44.15Zm6,20.38h6.14c6.41,0,10.48-3.39,10.48-8.5,0-5.78-4.34-8.3-10.69-8.37-2.9,0-4.97,.26-5.93,.53v16.33Z" style="fill:#fff;"/><path d="M151.83,94.69v26.49c0,10.03,4.62,14.27,10.83,14.27,6.9,0,11.31-4.38,11.31-14.27v-26.49h6.07v26.09c0,13.74-7.52,19.39-17.59,19.39-9.52,0-16.69-5.25-16.69-19.12v-26.36h6.07Z" style="fill:#fff;"/><path d="M189.62,132.4c2.69,1.59,6.62,2.92,10.76,2.92,6.14,0,9.72-3.12,9.72-7.63,0-4.18-2.48-6.57-8.76-8.9-7.59-2.59-12.28-6.37-12.28-12.68,0-6.97,6-12.15,15.04-12.15,4.76,0,8.21,1.06,10.28,2.19l-1.66,4.71c-1.52-.8-4.62-2.12-8.83-2.12-6.34,0-8.76,3.65-8.76,6.71,0,4.18,2.83,6.24,9.24,8.63,7.86,2.92,11.86,6.57,11.86,13.15,0,6.9-5.31,12.88-16.28,12.88-4.48,0-9.38-1.26-11.86-2.85l1.52-4.85Z" style="fill:#fff;"/><path d="M91.68,158.1c0,1.18-.21,2.27-.62,3.26s-1,1.84-1.75,2.56c-.75,.71-1.66,1.27-2.71,1.67s-2.23,.6-3.52,.6h-6.46v-16.17h6.46c1.29,0,2.46,.2,3.52,.6s1.96,.96,2.71,1.68c.75,.72,1.34,1.57,1.75,2.56,.41,.99,.62,2.07,.62,3.24Zm-3.57,0c0-.85-.12-1.61-.35-2.29-.23-.68-.56-1.25-1-1.72-.43-.47-.96-.83-1.58-1.08-.62-.25-1.33-.38-2.11-.38h-2.96v10.94h2.96c.79,0,1.49-.12,2.11-.37,.62-.25,1.15-.61,1.58-1.08,.43-.47,.76-1.05,1-1.72,.23-.68,.35-1.44,.35-2.3Z" style="fill:#fff;"/><path d="M97.73,152.64v4.16h5.6v2.53h-5.6v4.25h7.2v2.62h-10.7v-16.17h10.7v2.62h-7.2Z" style="fill:#fff;"/><path d="M119.42,152.72h-4.91v13.48h-3.49v-13.48h-4.91v-2.7h13.3v2.7Z" style="fill:#fff;"/><path d="M125.01,152.64v4.16h5.6v2.53h-5.6v4.25h7.2v2.62h-10.7v-16.17h10.7v2.62h-7.2Z" style="fill:#fff;"/><path d="M145.9,162.21c.19,0,.35,.07,.49,.2l1.38,1.42c-.68,.83-1.52,1.46-2.53,1.9-1.01,.43-2.21,.65-3.59,.65-1.26,0-2.39-.21-3.39-.62-1-.41-1.86-.99-2.56-1.72-.7-.74-1.24-1.61-1.62-2.62s-.57-2.11-.57-3.31c0-.8,.09-1.57,.27-2.29,.18-.72,.45-1.39,.79-2,.35-.61,.77-1.16,1.26-1.65s1.04-.91,1.66-1.25c.62-.35,1.29-.61,2.02-.79,.73-.18,1.51-.27,2.33-.27,.62,0,1.2,.05,1.75,.16,.55,.1,1.07,.25,1.54,.43s.92,.41,1.33,.67c.41,.26,.77,.55,1.09,.86l-1.17,1.54c-.07,.1-.16,.18-.27,.26s-.25,.11-.44,.11-.37-.06-.56-.19c-.19-.13-.42-.27-.7-.42-.27-.16-.62-.3-1.03-.42-.41-.13-.94-.19-1.57-.19-.7,0-1.35,.12-1.93,.37s-1.09,.6-1.51,1.06c-.42,.46-.75,1.04-.98,1.71-.23,.68-.35,1.45-.35,2.31s.13,1.64,.38,2.32c.25,.68,.59,1.25,1.03,1.72,.44,.47,.95,.82,1.53,1.06,.58,.24,1.21,.36,1.87,.36,.39,0,.75-.02,1.07-.06,.32-.04,.62-.1,.89-.19,.27-.09,.53-.2,.78-.34,.24-.14,.49-.32,.74-.54,.08-.07,.17-.12,.27-.17,.09-.04,.19-.07,.3-.07Z" style="fill:#fff;"/><path d="M161.61,152.72h-4.91v13.48h-3.49v-13.48h-4.91v-2.7h13.3v2.7Z" style="fill:#fff;"/><path d="M167.21,152.64v4.16h5.6v2.53h-5.6v4.25h7.2v2.62h-10.7v-16.17h10.7v2.62h-7.2Z" style="fill:#fff;"/><path d="M192.07,158.1c0,1.18-.21,2.27-.62,3.26s-1,1.84-1.75,2.56c-.75,.71-1.66,1.27-2.71,1.67s-2.23,.6-3.52,.6h-6.46v-16.17h6.46c1.29,0,2.46,.2,3.52,.6s1.96,.96,2.71,1.68c.75,.72,1.34,1.57,1.75,2.56,.41,.99,.62,2.07,.62,3.24Zm-3.57,0c0-.85-.12-1.61-.35-2.29-.23-.68-.56-1.25-1-1.72-.43-.47-.96-.83-1.58-1.08-.62-.25-1.33-.38-2.11-.38h-2.96v10.94h2.96c.79,0,1.49-.12,2.11-.37,.62-.25,1.15-.61,1.58-1.08,.43-.47,.76-1.05,1-1.72,.23-.68,.35-1.44,.35-2.3Z" style="fill:#fff;"/></g></g></g></svg>