<?xml version="1.0" encoding="UTF-8"?><svg id="Layer_2" xmlns="http://www.w3.org/2000/svg" xmlns:xlink="http://www.w3.org/1999/xlink" viewBox="0 0 991.47 711.72"><defs><linearGradient id="linear-gradient" x1="1" y1="350.68" x2="976.47" y2="350.68" gradientUnits="userSpaceOnUse"><stop offset="0" stop-color="#f9eb95"/><stop offset=".03" stop-color="#f9ea91"/><stop offset="1" stop-color="#f9c126"/></linearGradient></defs><g id="Layer_3"><g><rect x="16" y="20.36" width="975.47" height="691.37" rx="8" ry="8" style="opacity:.56;"/><rect x="1" y="1" width="975.47" height="699.36" rx="8" ry="8" style="fill:url(#linear-gradient); stroke:#000; stroke-miterlimit:10; stroke-width:2px;"/><path d="M1,102.72H976.47V688.72c0,4.42-3.58,8-8,8H9c-4.42,0-8-3.58-8-8V102.72h0Z" style="fill:#e9e1d9;"/><rect x="1" y="53.68" width="975.47" height="54.5" style="fill:#020202;"/><rect x="173.57" y="64.58" width="684.82" height="30.88" rx="8" ry="8" style="fill:#e9e1d9;"/><polygon points="897.31 65.97 900.99 77.29 912.89 77.29 903.26 84.29 906.94 95.61 897.31 88.61 887.68 95.61 891.36 84.29 881.73 77.29 893.63 77.29 897.31 65.97" style="fill:#e3b451;"/><path d="M132.8,65.35c.5,.07,1,.13,1.5,.22,3.51,.68,6.27,2.52,8.27,5.48,1.53,2.27,2.22,4.81,2.11,7.55-.11,2.65-.98,5.03-2.58,7.15-.11,.14-.22,.28-.34,.44,.07,.08,.14,.15,.21,.22,1.9,1.9,3.8,3.8,5.7,5.7,.36,.36,.55,.76,.41,1.27-.23,.79-1.15,1.1-1.81,.62-.11-.08-.21-.18-.31-.28-1.87-1.87-3.75-3.75-5.62-5.62-.07-.07-.13-.16-.2-.24-.42,.3-.79,.59-1.19,.85-2.28,1.49-4.78,2.17-7.5,2.08-5.78-.2-10.86-4.56-11.94-10.25-.1-.54-.16-1.09-.24-1.64,0-.55,0-1.09,0-1.64,.02-.07,.04-.14,.05-.22,.15-1.95,.72-3.78,1.74-5.44,1.99-3.26,4.86-5.28,8.61-6.02,.49-.1,1-.15,1.5-.22,.55,0,1.09,0,1.64,0Zm-11.18,12.68c-.02,5.62,4.51,10.35,10.3,10.4,5.62,.04,10.38-4.5,10.42-10.31,.04-5.62-4.5-10.38-10.31-10.41-5.63-.03-10.37,4.51-10.4,10.32Z" style="fill:#f4f4f4;"/><g><line x1="21.79" y1="80.12" x2="47.69" y2="80.12" style="fill:none; stroke:#f4f4f4; stroke-linecap:round; stroke-miterlimit:10;"/><polyline points="35.37 67.71 20.98 80.12 35.37 92.52" style="fill:none; stroke:#f4f4f4; stroke-linecap:round; stroke-miterlimit:10;"/></g><g><line x1="96.57" y1="79.79" x2="70.67" y2="79.79" style="fill:none; stroke:#f4f4f4; stroke-linecap:round; stroke-miterlimit:10;"/><polyline points="82.98 67.38 97.37 79.79 82.98 92.2" style="fill:none; stroke:#f4f4f4; stroke-linecap:round; stroke-miterlimit:10;"/></g><path d="M357.04,53.68H173.57l16.35-36.33s6.51-14.53,14.53-14.53h154.4c8.03,0,14.53,6.51,14.53,14.53l-16.35,36.33Z" style="fill:#e3b451;"/><path d="M511.44,53.68h-183.47l16.35-36.33s6.51-14.53,14.53-14.53h154.4c8.03,0,14.53,6.51,14.53,14.53l-16.35,36.33Z" style="fill:#dd8f1d;"/><path d="M532.22,53.68h-51.66l16.35-36.33s6.51-14.53,14.53-14.53h22.6c8.03,0,12.72,3.63,10.9,14.53l-12.72,36.33Z" style="fill:#bc6600;"/><path d="M524.09,28.81v1.05c0,.27-.13,.4-.4,.4h-6.96c-.11,0-.16,.05-.16,.16v6.8c0,.27-.13,.4-.4,.4h-1.05c-.27,0-.4-.13-.4-.4v-6.8c0-.11-.05-.16-.16-.16h-6.96c-.27,0-.4-.13-.4-.4v-1.05c0-.27,.13-.4,.4-.4h6.96c.11,0,.16-.05,.16-.16v-7.16c0-.27,.13-.4,.4-.4h1.05c.27,0,.4,.13,.4,.4v7.16c0,.11,.05,.16,.16,.16h6.96c.27,0,.4,.13,.4,.4Z" style="fill:#e9e1d9;"/><circle cx="35.78" cy="28.36" r="11" style="fill:#ed7e1b;"/><circle cx="76.28" cy="28.36" r="11" style="fill:#ed7e1b;"/><circle cx="116.78" cy="28.36" r="11" style="fill:#ed7e1b;"/></g></g></svg>