<?xml version="1.0" encoding="UTF-8"?><svg id="Layer_2" xmlns="http://www.w3.org/2000/svg" xmlns:xlink="http://www.w3.org/1999/xlink" viewBox="0 0 299.32 218.37"><defs><filter id="drop-shadow-1" filterUnits="userSpaceOnUse"><feOffset dx="4" dy="4"/><feGaussianBlur result="blur" stdDeviation="3"/><feFlood flood-color="#1a1c31" flood-opacity=".3"/><feComposite in2="blur" operator="in"/><feComposite in="SourceGraphic"/></filter></defs><g id="Layer_3"><g style="filter:url(#drop-shadow-1);"><g><polygon points="298.82 217.87 .5 217.87 .5 217.87 .5 .5 298.82 .5 298.82 217.87 298.82 217.87" style="fill:#fff;"/><polyline points=".5 32.68 .5 .5 298.82 .5 298.82 32.68" style="fill:#c6c6c6;"/><polygon points="298.82 217.87 .5 217.87 .5 217.87 .5 .5 298.82 .5 298.82 217.87 298.82 217.87" style="fill:none; stroke:#c6c6c6; stroke-miterlimit:10;"/><g><line x1="280.57" y1="12.81" x2="288.13" y2="20.37" style="fill:none; stroke:#333; stroke-miterlimit:10;"/><line x1="288.13" y1="12.81" x2="280.57" y2="20.37" style="fill:none; stroke:#333; stroke-miterlimit:10;"/></g><rect x="260.94" y="12.81" width="7.56" height="7.56" style="fill:none; stroke:#333; stroke-miterlimit:10;"/><line x1="248.04" y1="16.59" x2="240.48" y2="16.59" style="fill:none; stroke:#333; stroke-miterlimit:10;"/><rect x=".5" y="32.68" width="298.32" height=".9" style="fill:#aaa;"/></g><g><rect x="40.2" y="53.75" width="218.93" height="112.82" style="fill:#092867;"/><g><rect x="118.85" y="79.35" width="61.62" height="61.62" rx="20.79" ry="20.79" style="fill:#fff;"/><polygon points="166.22 110.16 139.79 94.91 139.79 125.42 166.22 110.16" style="fill:#d34448;"/></g></g><g><path d="M55.26,182.52l-4.62,14.33h-2.5l-3.25-9.79c-.09-.24-.17-.53-.25-.87-.04,.17-.08,.32-.12,.47s-.09,.28-.13,.41l-3.28,9.79h-2.51l-4.61-14.33h2.32c.24,0,.44,.05,.6,.16s.27,.26,.32,.44l2.53,8.57c.05,.21,.11,.44,.16,.69,.05,.25,.1,.51,.16,.78,.05-.28,.11-.54,.18-.78s.14-.47,.21-.68l2.92-8.57c.05-.15,.16-.29,.32-.42,.16-.12,.36-.19,.59-.19h.81c.24,0,.44,.06,.59,.17,.15,.11,.26,.26,.34,.44l2.91,8.57c.14,.41,.27,.88,.39,1.42,.09-.52,.19-.99,.3-1.42l2.53-8.57c.04-.16,.15-.31,.31-.43,.17-.12,.37-.18,.6-.18h2.17Z" style="fill:#21264c;"/><path d="M55.18,188.1c1.21-1.07,2.68-1.6,4.38-1.6,.62,0,1.17,.1,1.66,.29,.49,.2,.9,.47,1.23,.81s.59,.76,.77,1.24,.26,1.01,.26,1.58v6.42h-1.15c-.24,0-.43-.04-.56-.1-.13-.07-.23-.21-.31-.42l-.23-.73c-.27,.23-.53,.43-.78,.61-.25,.17-.52,.32-.79,.44s-.57,.21-.88,.27c-.31,.06-.66,.09-1.03,.09-.45,0-.86-.06-1.23-.17-.38-.12-.7-.29-.98-.52-.28-.23-.49-.52-.64-.86-.15-.34-.23-.74-.23-1.2,0-.26,.04-.51,.13-.77,.09-.25,.24-.5,.44-.73,.2-.23,.46-.45,.79-.65,.32-.21,.72-.38,1.19-.54,.47-.15,1.02-.28,1.64-.37,.62-.1,1.34-.15,2.14-.17v-.59c0-.68-.15-1.18-.45-1.51-.3-.33-.74-.49-1.31-.49-.41,0-.75,.05-1.02,.14-.27,.09-.51,.2-.72,.31-.21,.12-.39,.22-.56,.31s-.36,.14-.56,.14c-.18,0-.33-.04-.45-.13s-.22-.19-.3-.31l-.45-.78Zm5.82,4.41c-.73,.03-1.35,.09-1.85,.18-.5,.09-.9,.2-1.2,.34s-.52,.3-.65,.49c-.13,.19-.2,.39-.2,.6,0,.43,.13,.74,.4,.92,.26,.18,.61,.28,1.03,.28,.52,0,.97-.09,1.35-.27s.75-.46,1.12-.83v-1.71Z" style="fill:#21264c;"/><path d="M69.25,197.01c-.92,0-1.62-.25-2.12-.75-.49-.5-.74-1.19-.74-2.07v-5.68h-1.08c-.14,0-.25-.04-.35-.13-.1-.08-.14-.21-.14-.39v-.97l1.7-.27,.54-2.77c.03-.13,.1-.23,.2-.31,.1-.07,.22-.11,.37-.11h1.32v3.2h2.82v1.74h-2.82v5.51c0,.32,.08,.56,.24,.74,.16,.18,.38,.27,.66,.27,.16,0,.29-.02,.4-.05,.11-.04,.2-.07,.28-.11s.15-.08,.21-.11c.06-.04,.12-.05,.19-.05,.08,0,.14,.02,.18,.05,.05,.04,.1,.09,.16,.16l.76,1.19c-.37,.3-.8,.52-1.28,.67-.48,.15-.98,.23-1.49,.23Z" style="fill:#21264c;"/><path d="M80.86,188.83c-.08,.09-.15,.17-.22,.22-.07,.05-.18,.08-.31,.08-.13,0-.26-.04-.38-.11-.12-.08-.27-.16-.44-.26s-.38-.18-.61-.26-.53-.11-.88-.11c-.45,0-.84,.08-1.17,.23-.34,.16-.62,.38-.84,.67-.22,.29-.39,.64-.5,1.05-.11,.41-.17,.88-.17,1.4s.06,1.02,.18,1.45c.12,.42,.29,.78,.52,1.06s.5,.51,.82,.65c.32,.15,.69,.22,1.09,.22s.73-.05,.98-.14c.25-.1,.46-.2,.63-.32,.17-.12,.32-.22,.45-.32s.27-.14,.43-.14c.21,0,.36,.08,.46,.23l.73,.89c-.28,.32-.59,.58-.92,.8-.33,.21-.67,.39-1.02,.51s-.72,.22-1.09,.27-.75,.08-1.12,.08c-.65,0-1.27-.12-1.84-.35s-1.08-.58-1.51-1.03c-.43-.45-.77-1-1.02-1.65-.25-.65-.38-1.39-.38-2.22,0-.75,.11-1.44,.33-2.08,.22-.64,.55-1.19,.98-1.65s.97-.83,1.61-1.09c.64-.26,1.37-.4,2.2-.4s1.48,.12,2.07,.37c.59,.24,1.13,.59,1.6,1.05l-.67,.89Z" style="fill:#21264c;"/><path d="M85.76,187.77c.41-.37,.86-.67,1.36-.9,.49-.23,1.07-.35,1.74-.35,.58,0,1.09,.09,1.53,.28,.45,.19,.82,.45,1.12,.79s.52,.75,.68,1.22c.16,.47,.23,.99,.23,1.56v6.47h-2.54v-6.47c0-.62-.15-1.1-.44-1.44-.3-.34-.75-.51-1.35-.51-.44,0-.85,.1-1.23,.29-.38,.19-.75,.45-1.09,.78v7.35h-2.54v-14.72h2.54v5.65Z" style="fill:#21264c;"/><path d="M108.86,186.68l-4.19,10.17h-2.3l-4.19-10.17h2.1c.19,0,.35,.04,.48,.13,.13,.09,.21,.2,.25,.33l2.04,5.43c.11,.32,.21,.63,.29,.93,.08,.3,.15,.61,.22,.91,.07-.3,.14-.61,.23-.91,.08-.3,.18-.61,.3-.93l2.08-5.43c.05-.13,.13-.24,.26-.33,.12-.08,.27-.13,.44-.13h2.01Z" style="fill:#21264c;"/><path d="M113.19,183.72c0,.21-.04,.41-.13,.59-.09,.18-.21,.35-.36,.49s-.32,.25-.52,.33c-.2,.08-.41,.12-.64,.12s-.43-.04-.62-.12c-.2-.08-.37-.19-.51-.33-.14-.14-.26-.3-.34-.49s-.13-.38-.13-.59,.04-.42,.13-.61,.2-.36,.34-.5c.14-.14,.31-.25,.51-.33,.2-.08,.4-.12,.62-.12s.44,.04,.64,.12c.2,.08,.37,.19,.52,.33s.27,.3,.36,.5c.09,.19,.13,.4,.13,.61Zm-.35,2.96v10.17h-2.55v-10.17h2.55Z" style="fill:#21264c;"/><path d="M124.6,182.13v14.72h-1.55c-.34,0-.55-.15-.64-.45l-.22-.98c-.43,.47-.91,.85-1.47,1.14-.55,.29-1.2,.44-1.93,.44-.58,0-1.11-.12-1.58-.35-.48-.23-.89-.57-1.24-1.01-.35-.44-.61-.98-.8-1.63-.19-.65-.28-1.39-.28-2.22,0-.75,.11-1.45,.32-2.1,.21-.65,.52-1.21,.92-1.68,.4-.48,.87-.85,1.43-1.11,.56-.27,1.18-.4,1.87-.4,.59,0,1.09,.09,1.51,.27,.42,.18,.79,.42,1.12,.72v-5.36h2.54Zm-2.54,7.15c-.29-.34-.6-.57-.94-.71s-.71-.21-1.1-.21-.73,.07-1.04,.21-.57,.35-.79,.63c-.22,.28-.39,.64-.5,1.07-.12,.43-.17,.94-.17,1.53s.05,1.1,.15,1.51c.1,.41,.24,.75,.43,1.01,.19,.26,.41,.45,.68,.56,.27,.12,.57,.17,.9,.17,.53,0,.98-.11,1.35-.32,.37-.21,.72-.51,1.05-.9v-4.56Z" style="fill:#21264c;"/><path d="M129.07,192.07c.04,.52,.14,.97,.29,1.35,.15,.38,.35,.69,.6,.94,.25,.25,.54,.43,.88,.55s.72,.18,1.13,.18,.77-.05,1.07-.14c.3-.09,.56-.19,.78-.31,.22-.11,.42-.21,.59-.31,.17-.09,.33-.14,.49-.14,.21,0,.37,.08,.47,.23l.73,.89c-.28,.32-.6,.58-.95,.8-.35,.21-.71,.39-1.1,.51s-.77,.22-1.16,.27-.78,.08-1.15,.08c-.73,0-1.42-.12-2.05-.35s-1.18-.58-1.65-1.04-.83-1.03-1.1-1.7c-.27-.68-.4-1.46-.4-2.35,0-.69,.12-1.35,.35-1.96s.57-1.14,1-1.59c.44-.45,.97-.81,1.6-1.08,.63-.26,1.34-.4,2.12-.4,.67,0,1.28,.1,1.84,.31,.56,.2,1.05,.5,1.45,.9,.4,.39,.72,.88,.95,1.45,.23,.57,.34,1.22,.34,1.96,0,.37-.04,.62-.12,.75-.08,.13-.24,.19-.47,.19h-6.53Zm4.85-1.48c0-.32-.05-.62-.14-.9-.09-.28-.23-.53-.42-.74-.18-.21-.42-.38-.71-.5-.28-.12-.62-.18-.99-.18-.73,0-1.31,.2-1.73,.6-.42,.4-.69,.97-.81,1.71h4.79Z" style="fill:#21264c;"/><path d="M142.77,186.53c.78,0,1.49,.12,2.14,.37,.64,.24,1.19,.59,1.65,1.04,.46,.45,.81,1,1.05,1.64s.37,1.37,.37,2.17-.12,1.53-.37,2.18c-.25,.65-.6,1.2-1.05,1.65-.46,.46-1.01,.81-1.65,1.05-.64,.24-1.35,.37-2.14,.37s-1.51-.12-2.15-.37c-.64-.24-1.2-.59-1.65-1.05-.46-.46-.81-1.01-1.06-1.65-.25-.65-.38-1.37-.38-2.18s.12-1.52,.38-2.17c.25-.65,.6-1.2,1.06-1.64s1.01-.8,1.65-1.04c.65-.25,1.36-.37,2.15-.37Zm0,8.59c.88,0,1.53-.28,1.95-.85,.42-.57,.63-1.4,.63-2.5s-.21-1.93-.63-2.51c-.42-.57-1.07-.86-1.95-.86s-1.55,.29-1.98,.87-.64,1.41-.64,2.5,.21,1.92,.64,2.49,1.09,.86,1.98,.86Z" style="fill:#21264c;"/><path d="M158.45,197.01c-.92,0-1.62-.25-2.12-.75-.49-.5-.74-1.19-.74-2.07v-5.68h-1.08c-.14,0-.25-.04-.35-.13-.1-.08-.14-.21-.14-.39v-.97l1.7-.27,.54-2.77c.03-.13,.1-.23,.2-.31,.1-.07,.22-.11,.37-.11h1.32v3.2h2.82v1.74h-2.82v5.51c0,.32,.08,.56,.24,.74,.16,.18,.38,.27,.66,.27,.16,0,.29-.02,.4-.05,.11-.04,.2-.07,.28-.11s.15-.08,.21-.11c.06-.04,.12-.05,.19-.05,.08,0,.14,.02,.18,.05,.05,.04,.1,.09,.16,.16l.76,1.19c-.37,.3-.8,.52-1.28,.67-.48,.15-.98,.23-1.49,.23Z" style="fill:#21264c;"/><path d="M167.17,186.53c.78,0,1.49,.12,2.14,.37,.64,.24,1.19,.59,1.65,1.04,.46,.45,.81,1,1.05,1.64s.37,1.37,.37,2.17-.12,1.53-.37,2.18c-.25,.65-.6,1.2-1.05,1.65-.46,.46-1.01,.81-1.65,1.05-.64,.24-1.35,.37-2.14,.37s-1.51-.12-2.15-.37c-.64-.24-1.2-.59-1.65-1.05-.46-.46-.81-1.01-1.06-1.65-.25-.65-.38-1.37-.38-2.18s.12-1.52,.38-2.17c.25-.65,.6-1.2,1.06-1.64s1.01-.8,1.65-1.04c.65-.25,1.36-.37,2.15-.37Zm0,8.59c.88,0,1.53-.28,1.95-.85,.42-.57,.63-1.4,.63-2.5s-.21-1.93-.63-2.51c-.42-.57-1.07-.86-1.95-.86s-1.55,.29-1.98,.87-.64,1.41-.64,2.5,.21,1.92,.64,2.49,1.09,.86,1.98,.86Z" style="fill:#21264c;"/><path d="M186.89,188.83c-.08,.09-.15,.17-.22,.22-.07,.05-.18,.08-.31,.08-.13,0-.26-.04-.38-.11-.12-.08-.27-.16-.44-.26s-.38-.18-.61-.26-.53-.11-.88-.11c-.45,0-.84,.08-1.17,.23-.34,.16-.62,.38-.84,.67-.22,.29-.39,.64-.5,1.05-.11,.41-.17,.88-.17,1.4s.06,1.02,.18,1.45c.12,.42,.29,.78,.52,1.06s.5,.51,.82,.65c.32,.15,.69,.22,1.09,.22s.73-.05,.98-.14c.25-.1,.46-.2,.63-.32,.17-.12,.32-.22,.45-.32s.27-.14,.43-.14c.21,0,.36,.08,.46,.23l.73,.89c-.28,.32-.59,.58-.92,.8-.33,.21-.67,.39-1.02,.51s-.72,.22-1.09,.27-.75,.08-1.12,.08c-.65,0-1.27-.12-1.84-.35s-1.08-.58-1.51-1.03c-.43-.45-.77-1-1.02-1.65-.25-.65-.38-1.39-.38-2.22,0-.75,.11-1.44,.33-2.08,.22-.64,.55-1.19,.98-1.65s.97-.83,1.61-1.09c.64-.26,1.37-.4,2.2-.4s1.48,.12,2.07,.37c.59,.24,1.13,.59,1.6,1.05l-.67,.89Z" style="fill:#21264c;"/><path d="M193.73,186.53c.78,0,1.49,.12,2.14,.37,.64,.24,1.19,.59,1.65,1.04,.46,.45,.81,1,1.05,1.64s.37,1.37,.37,2.17-.12,1.53-.37,2.18c-.25,.65-.6,1.2-1.05,1.65-.46,.46-1.01,.81-1.65,1.05-.64,.24-1.35,.37-2.14,.37s-1.51-.12-2.15-.37c-.64-.24-1.2-.59-1.65-1.05-.46-.46-.81-1.01-1.06-1.65-.25-.65-.38-1.37-.38-2.18s.12-1.52,.38-2.17c.25-.65,.6-1.2,1.06-1.64s1.01-.8,1.65-1.04c.65-.25,1.36-.37,2.15-.37Zm0,8.59c.88,0,1.53-.28,1.95-.85,.42-.57,.63-1.4,.63-2.5s-.21-1.93-.63-2.51c-.42-.57-1.07-.86-1.95-.86s-1.55,.29-1.98,.87-.64,1.41-.64,2.5,.21,1.92,.64,2.49,1.09,.86,1.98,.86Z" style="fill:#21264c;"/><path d="M203.26,187.93c.21-.21,.44-.39,.67-.57,.24-.17,.49-.32,.75-.45,.26-.12,.55-.22,.85-.29s.63-.1,.99-.1c.58,0,1.09,.09,1.53,.28,.45,.19,.82,.45,1.12,.79s.52,.75,.68,1.22c.16,.47,.23,.99,.23,1.56v6.47h-2.54v-6.47c0-.62-.15-1.1-.44-1.44-.3-.34-.75-.51-1.35-.51-.44,0-.85,.1-1.23,.29-.38,.19-.75,.45-1.09,.78v7.35h-2.54v-10.17h1.55c.33,0,.54,.15,.65,.45l.17,.8Z" style="fill:#21264c;"/><path d="M223,196.85h-2.54v-8.33h-4.9v5.51c0,.32,.08,.56,.24,.74,.16,.18,.38,.27,.66,.27,.16,0,.29-.02,.4-.05,.11-.04,.2-.07,.28-.11s.15-.08,.21-.11c.06-.04,.12-.05,.19-.05,.08,0,.14,.02,.18,.05,.05,.04,.1,.09,.16,.16l.76,1.19c-.37,.3-.8,.52-1.28,.67-.48,.15-.98,.23-1.49,.23-.92,0-1.62-.25-2.12-.75-.49-.5-.74-1.19-.74-2.07v-5.68h-1.08c-.14,0-.25-.04-.35-.13-.1-.08-.14-.21-.14-.39v-.97l1.7-.28,.54-2.76c.03-.13,.1-.23,.2-.31,.1-.07,.22-.11,.37-.11h1.32v3.2h7.44v10.08Zm.44-13.17c0,.21-.04,.41-.13,.6-.09,.19-.21,.35-.36,.49s-.32,.25-.52,.33c-.2,.08-.42,.12-.64,.12s-.43-.04-.62-.12c-.19-.08-.36-.19-.5-.33-.14-.14-.26-.3-.34-.49-.09-.19-.13-.39-.13-.6s.04-.42,.13-.61c.09-.19,.2-.35,.34-.5,.14-.14,.31-.25,.5-.34,.19-.08,.4-.12,.62-.12s.44,.04,.64,.12c.2,.08,.38,.19,.52,.34,.15,.14,.27,.31,.36,.5,.09,.19,.13,.39,.13,.61Z" style="fill:#21264c;"/><path d="M227.97,187.93c.21-.21,.44-.39,.67-.57,.24-.17,.49-.32,.75-.45,.26-.12,.55-.22,.85-.29s.63-.1,.99-.1c.58,0,1.09,.09,1.53,.28,.45,.19,.82,.45,1.12,.79s.52,.75,.68,1.22c.16,.47,.23,.99,.23,1.56v6.47h-2.54v-6.47c0-.62-.15-1.1-.44-1.44-.3-.34-.75-.51-1.35-.51-.44,0-.85,.1-1.23,.29-.38,.19-.75,.45-1.09,.78v7.35h-2.54v-10.17h1.55c.33,0,.54,.15,.65,.45l.17,.8Z" style="fill:#21264c;"/><path d="M246.3,186.68v10.17h-1.55c-.34,0-.55-.15-.64-.45l-.18-.81c-.43,.42-.91,.76-1.43,1.03s-1.14,.39-1.84,.39c-.58,0-1.08-.09-1.53-.28-.44-.19-.82-.45-1.12-.8-.3-.34-.53-.75-.68-1.22-.15-.47-.23-.99-.23-1.56v-6.46h2.54v6.46c0,.62,.15,1.1,.45,1.44,.3,.34,.75,.51,1.34,.51,.44,0,.85-.09,1.23-.28,.38-.19,.75-.45,1.09-.78v-7.35h2.54Z" style="fill:#21264c;"/><path d="M250.77,192.07c.04,.52,.14,.97,.29,1.35,.15,.38,.35,.69,.6,.94,.25,.25,.54,.43,.88,.55s.72,.18,1.13,.18,.77-.05,1.07-.14c.3-.09,.56-.19,.78-.31,.22-.11,.42-.21,.59-.31,.17-.09,.33-.14,.49-.14,.21,0,.37,.08,.47,.23l.73,.89c-.28,.32-.6,.58-.95,.8-.35,.21-.71,.39-1.1,.51s-.77,.22-1.16,.27-.78,.08-1.15,.08c-.73,0-1.42-.12-2.05-.35s-1.18-.58-1.65-1.04-.83-1.03-1.1-1.7c-.27-.68-.4-1.46-.4-2.35,0-.69,.12-1.35,.35-1.96s.57-1.14,1-1.59c.44-.45,.97-.81,1.6-1.08,.63-.26,1.34-.4,2.12-.4,.67,0,1.28,.1,1.84,.31,.56,.2,1.05,.5,1.45,.9,.4,.39,.72,.88,.95,1.45,.23,.57,.34,1.22,.34,1.96,0,.37-.04,.62-.12,.75-.08,.13-.24,.19-.47,.19h-6.53Zm4.85-1.48c0-.32-.05-.62-.14-.9-.09-.28-.23-.53-.42-.74-.18-.21-.42-.38-.71-.5-.28-.12-.62-.18-.99-.18-.73,0-1.31,.2-1.73,.6-.42,.4-.69,.97-.81,1.71h4.79Z" style="fill:#21264c;"/><path d="M259.43,195.5c0-.2,.04-.4,.12-.58,.08-.18,.19-.34,.32-.48,.14-.13,.3-.24,.49-.32s.4-.12,.62-.12,.42,.04,.61,.12c.19,.08,.35,.19,.49,.32s.25,.29,.33,.48,.12,.38,.12,.58-.04,.41-.12,.59-.19,.34-.33,.47-.3,.24-.49,.31c-.19,.08-.39,.11-.61,.11s-.43-.04-.62-.11c-.19-.08-.36-.18-.49-.31-.14-.13-.25-.29-.32-.47-.08-.18-.12-.38-.12-.59Z" style="fill:#21264c;"/></g></g></g></svg>